# xmcd
#
# Track frame offsets:
#	150
#	35025
#	55568
#	77066
#	101475
#	115765
#	140361
#	166725
#	184636
#	218881
#	238650
#	276530
#	300750
#
# Disc length: 4341 seconds
#
# Revision: 1
# Processed by: cddbd v1.5.2PL0 Copyright (c) Steve Scherf et al.
# Submitted via: audiograbber 1.83.01
#
DISCID=a710f30d
DTITLE=Oslo Gospel Choir - We Lift Our Hands - Part Two
DYEAR=2006
DGENRE=Gosple
TTITLE0=Ancient of days
TTITLE1=Breathe
TTITLE2=I give You my heart
TTITLE3=Shout to the Lord
TTITLE4=God will make a way
TTITLE5=You alr Holy
TTITLE6=Joy to my soul
TTITLE7=Never let me go
TTITLE8=This is the Lords doing
TTITLE9=Come let us sing
TTITLE10=Bless the Lord (postludium)
TTITLE11=Glory to God Almighty
TTITLE12=Shine Your light
EXTD=
EXTT0=
EXTT1=
EXTT2=
EXTT3=
EXTT4=
EXTT5=
EXTT6=
EXTT7=
EXTT8=
EXTT9=
EXTT10=
EXTT11=
EXTT12=
PLAYORDER=
